<svg width="100" height="50" xmlns="http://www.w3.org/2000/svg">
    <g fill="#000" fill-rule="nonzero">
        <path d="M7.307 8.039v4.004h7.905v2.497H7.307v6.646H4.5V5.5h11.146v2.539zM18.683 5.768c.95 0 1.651.764 1.651 1.63 0 .909-.701 1.59-1.65 1.59-.971 0-1.652-.681-1.652-1.59 0-.866.681-1.63 1.651-1.63zM20.045 21.186h-2.724V10.887h2.724zM33.2 13.116l-2.023.02c.227.517.351 1.074.351 1.693 0 2.415-1.96 4.231-4.561 4.231-.97 0-1.858-.247-2.58-.701-.248.165-.393.371-.393.66 0 .537.496.908 1.239.908h3.405c2.477 0 4.128 1.466 4.128 3.654 0 2.394-1.94 4.004-5.18 4.004h-1.693c-3.075 0-4.706-1.63-4.706-3.757 0-1.114.455-2.022 1.177-2.662a2.708 2.708 0 0 1-.846-2.002c0-1.115.578-1.9 1.362-2.395a4.089 4.089 0 0 1-.475-1.94c0-2.435 1.961-4.252 4.562-4.252.64 0 1.238.104 1.775.31H33.2v2.23zm-6.233 3.653c1.197 0 2.105-.846 2.105-1.94 0-1.114-.908-1.96-2.105-1.96s-2.085.846-2.085 1.96c0 1.094.888 1.94 2.085 1.94zm1.671 5.387h-2.951c-1.073 0-1.775.537-1.775 1.507 0 .908.62 1.693 2.188 1.693h1.486c1.59 0 2.456-.785 2.456-1.817 0-.825-.557-1.383-1.404-1.383zM47.362 10.577c2.147 0 4.005 1.652 4.005 4.17v6.44h-2.704v-5.883c0-1.383-.888-2.23-2.023-2.23-1.445 0-2.394.992-2.394 3.159v4.953H41.52v-5.882c0-1.383-.887-2.23-2.022-2.23-1.445 0-2.353.992-2.353 3.159v4.953H34.42V10.887h2.725v.846c.722-.722 1.733-1.156 3.075-1.156 1.383 0 2.642.599 3.385 1.693.846-1.053 2.105-1.693 3.756-1.693zM62.85 15.84v.93h-7.844c.268 1.486 1.321 2.394 2.58 2.394.805 0 1.816-.104 2.56-1.363l2.435.516c-.908 2.147-2.745 3.179-4.995 3.179-2.91 0-5.284-2.208-5.284-5.449 0-3.24 2.374-5.47 5.325-5.47 2.745 0 5.12 2.126 5.222 5.264zm-5.223-2.889c-1.032 0-2.208.62-2.538 1.899h4.974c-.351-1.321-1.342-1.899-2.436-1.899zM70.018 10.577c2.477 0 4.128 1.775 4.128 4.335v6.274h-2.724V15.49c0-1.445-.826-2.415-2.085-2.415-1.548 0-2.56 1.032-2.56 3.55v4.561h-2.724V10.887h2.725v.929c.805-.805 1.878-1.239 3.24-1.239zM79.826 13.116v4.273c0 1.011.474 1.568 1.3 1.568.475 0 1.176-.206 1.713-.495l.784 2.27c-1.073.578-1.816.764-2.683.764-2.456 0-3.839-1.404-3.839-3.901v-4.479h-2.208v-2.229H77.1V7.151l2.725-.825v4.561h3.983v2.23h-3.983zM19.175 27.98v15.687h-1.94L7.307 33.078v10.589H4.5V27.98h1.94l9.928 10.795V27.98zM30.926 38.321v.929h-7.843c.268 1.486 1.32 2.394 2.58 2.394.805 0 1.816-.103 2.56-1.362l2.435.516c-.908 2.146-2.745 3.178-4.995 3.178-2.91 0-5.284-2.208-5.284-5.449 0-3.24 2.374-5.47 5.325-5.47 2.745 0 5.119 2.127 5.222 5.264zm-5.222-2.89c-1.032 0-2.208.62-2.539 1.9h4.975c-.351-1.322-1.342-1.9-2.436-1.9zM36.048 35.597v4.272c0 1.011.475 1.569 1.3 1.569.475 0 1.177-.207 1.714-.496l.784 2.27c-1.073.579-1.816.764-2.683.764-2.456 0-3.84-1.403-3.84-3.9v-4.48h-2.208v-2.229h2.209v-3.735l2.724-.826v4.561h3.984v2.23h-3.984zM57.366 33.367l-3.818 10.32h-2.27l-2.23-6.068-2.25 6.068h-2.27l-3.819-10.32h2.91l2.147 6.172 2.209-6.172H50.1l2.208 6.192 2.147-6.192zM62.454 33.058c3.054 0 5.614 2.229 5.614 5.47 0 3.24-2.56 5.448-5.614 5.448-3.096 0-5.656-2.208-5.656-5.449 0-3.24 2.56-5.47 5.656-5.47zm0 8.545c1.568 0 2.972-1.156 2.972-3.076 0-1.92-1.404-3.075-2.972-3.075-1.61 0-3.014 1.156-3.014 3.075 0 1.92 1.404 3.076 3.014 3.076zM75.26 33.223c.27 0 .476 0 .723.083l-.144 2.62h-.599c-2.518 0-3.674 1.549-3.674 4.418v3.323h-2.724v-10.3h2.724v1.796c.764-1.197 1.961-1.94 3.695-1.94zM83.689 43.667l-4.128-3.901v3.9h-2.725V27.156h2.725v10.258l4.004-4.046h3.447l-4.974 5.14 5.366 5.16z"/>
        <path d="M86.812 40.942l2.745-.557c.145 1.053.909 1.465 1.734 1.465.95 0 1.383-.516 1.383-1.073 0-.392-.206-.743-.826-.908l-2.043-.557c-1.63-.434-2.704-1.342-2.704-2.952 0-1.92 1.507-3.302 3.922-3.302 2.312 0 3.9 1.259 4.231 3.055l-2.6.516c-.104-.826-.62-1.507-1.631-1.507-.764 0-1.197.392-1.197.929 0 .536.413.846 1.114 1.032l1.92.536c1.651.454 2.477 1.445 2.477 2.952 0 2.188-1.713 3.405-4.21 3.405-2.024 0-4.067-.805-4.315-3.034z"/>
    </g>
</svg>
