<svg width="184" height="28" xmlns="http://www.w3.org/2000/svg">
    <g fill="#000" fill-rule="nonzero">
        <path d="M5.533 5.942v4.05h8.016v2.527H5.533v6.723H2.687V3.374h11.301v2.568zM17.068 3.645a1.66 1.66 0 0 1 1.674 1.65c0 .918-.711 1.607-1.674 1.607-.984 0-1.674-.689-1.674-1.607 0-.877.69-1.65 1.674-1.65zM18.45 19.242h-2.763V8.823h2.762zM31.787 11.078l-2.05.021c.23.522.355 1.086.355 1.712 0 2.443-1.988 4.28-4.625 4.28-.984 0-1.883-.25-2.616-.71-.251.168-.398.377-.398.67 0 .542.503.918 1.256.918h3.453c2.512 0 4.186 1.482 4.186 3.696 0 2.422-1.967 4.05-5.253 4.05h-1.716c-3.118 0-4.772-1.65-4.772-3.8 0-1.127.46-2.046 1.193-2.693a2.737 2.737 0 0 1-.858-2.026c0-1.127.586-1.92 1.381-2.422a4.129 4.129 0 0 1-.481-1.963c0-2.463 1.988-4.3 4.625-4.3.649 0 1.256.104 1.8.312h4.52v2.255zm-6.32 3.696c1.214 0 2.135-.856 2.135-1.963 0-1.127-.921-1.983-2.135-1.983-1.214 0-2.114.856-2.114 1.983 0 1.107.9 1.963 2.114 1.963zm1.695 5.45H24.17c-1.089 0-1.8.543-1.8 1.524 0 .919.628 1.712 2.218 1.712h1.507c1.611 0 2.49-.793 2.49-1.837 0-.835-.565-1.4-1.423-1.4zM46.147 8.51c2.177 0 4.06 1.67 4.06 4.218v6.514h-2.741v-5.95c0-1.4-.9-2.255-2.051-2.255-1.465 0-2.428 1.002-2.428 3.194v5.011h-2.762v-5.95c0-1.4-.9-2.255-2.051-2.255-1.465 0-2.386 1.002-2.386 3.194v5.011h-2.762V8.823h2.762v.856c.733-.73 1.758-1.169 3.118-1.169 1.403 0 2.68.606 3.433 1.712.858-1.065 2.134-1.712 3.808-1.712zM61.85 13.835v.94h-7.952c.272 1.503 1.34 2.421 2.616 2.421.816 0 1.841-.104 2.595-1.378l2.47.522c-.921 2.172-2.784 3.216-5.065 3.216-2.951 0-5.358-2.234-5.358-5.513 0-3.278 2.407-5.533 5.4-5.533 2.783 0 5.19 2.15 5.294 5.325zm-5.294-2.924c-1.047 0-2.24.627-2.575 1.921h5.044c-.356-1.336-1.36-1.92-2.47-1.92zM69.12 8.51c2.51 0 4.185 1.796 4.185 4.385v6.348h-2.762V13.48c0-1.462-.838-2.443-2.114-2.443-1.57 0-2.595 1.044-2.595 3.591v4.614H63.07V8.823h2.763v.94c.816-.814 1.904-1.253 3.285-1.253zM79.064 11.078v4.323c0 1.023.481 1.586 1.318 1.586.482 0 1.193-.208 1.737-.5l.795 2.296c-1.088.585-1.841.773-2.72.773-2.49 0-3.893-1.42-3.893-3.947v-4.53h-2.24V8.822h2.24V5.044l2.763-.835v4.614h4.039v2.255h-4.04zM103.703 3.374v15.869h-1.967L91.669 8.53v10.711h-2.846V3.374h1.967l10.067 10.92V3.374zM115.618 13.835v.94h-7.953c.272 1.503 1.34 2.421 2.616 2.421.816 0 1.842-.104 2.595-1.378l2.47.522c-.921 2.172-2.784 3.216-5.065 3.216-2.95 0-5.357-2.234-5.357-5.513 0-3.278 2.406-5.533 5.4-5.533 2.783 0 5.19 2.15 5.294 5.325zm-5.295-2.924c-1.046 0-2.24.627-2.574 1.921h5.044c-.356-1.336-1.36-1.92-2.47-1.92zM120.812 11.078v4.323c0 1.023.48 1.586 1.318 1.586.481 0 1.193-.208 1.737-.5l.795 2.296c-1.088.585-1.841.773-2.72.773-2.49 0-3.893-1.42-3.893-3.947v-4.53h-2.24V8.822h2.24V5.044l2.763-.835v4.614h4.039v2.255h-4.04zM142.427 8.823l-3.872 10.44h-2.302l-2.26-6.138-2.281 6.138h-2.303l-3.871-10.44h2.95l2.177 6.243 2.24-6.243h2.155l2.24 6.264 2.176-6.264zM147.585 8.51c3.098 0 5.693 2.255 5.693 5.533 0 3.279-2.595 5.513-5.693 5.513-3.139 0-5.734-2.234-5.734-5.513 0-3.278 2.595-5.533 5.734-5.533zm0 8.644c1.591 0 3.014-1.169 3.014-3.11 0-1.942-1.423-3.112-3.014-3.112-1.632 0-3.055 1.17-3.055 3.111 0 1.942 1.423 3.111 3.055 3.111zM160.571 8.677c.272 0 .482 0 .733.084l-.147 2.652h-.607c-2.553 0-3.725 1.566-3.725 4.468v3.361h-2.762V8.823h2.762v1.817c.775-1.211 1.988-1.963 3.746-1.963zM169.117 19.242l-4.186-3.946v3.947h-2.762V2.538h2.762v10.377l4.06-4.093h3.495l-5.043 5.2 5.44 5.22z"/>
        <path d="M172.284 16.486l2.783-.563c.147 1.064.921 1.482 1.758 1.482.963 0 1.403-.522 1.403-1.086 0-.396-.21-.751-.838-.918l-2.071-.564c-1.654-.439-2.742-1.357-2.742-2.986 0-1.942 1.528-3.34 3.976-3.34 2.344 0 3.956 1.273 4.29 3.09l-2.636.521c-.105-.835-.628-1.524-1.654-1.524-.774 0-1.214.397-1.214.94 0 .543.419.856 1.13 1.044l1.947.543c1.674.459 2.511 1.461 2.511 2.985 0 2.214-1.737 3.446-4.27 3.446-2.05 0-4.122-.815-4.373-3.07z"/>
    </g>
</svg>
